#!OML:ASF H:\LiuWeirdWalks\Patient Classification 1\Patient 1\Session 1\male.ASF
:FULLY-SPECIFIED
:DEGREES
561
root 1.68037 17.5456 25.3893 1.95627 5.01314 -6.53243
lowerback 6.92826 13.4973 15.2802
upperback -2.81924 19.3042 -4.64144
thorax -0.315745 9.57083 -13.4407
lowerneck -21.0689 -5.43521 -2.42744
upperneck 24.1071 -7.12168 1.19295
head 11.478 -3.25357 -0.289089
rclavicle 1.48045e-013 1.51076e-014
rhumerus -17.9174 -0.0745049 -77.187
rradius 55.623
rwrist 0.380512
rhand -10.9129 8.81871
rfingers 7.12502
rthumb 15.1044 -20.6102
lclavicle 1.48045e-013 1.51076e-014
lhumerus -30.7887 13.0468 45.8909
lradius 50.5557
lwrist 12.2211
lhand -16.7756 -1.26976
lfingers 7.12502
lthumb 9.45188 28.4983
rfemur 20.2613 -2.32106 29.7073
rtibia 12.7242
rfoot -5.31694 -15.9866
rtoes -19.3025
lfemur -32.6119 -2.48555 -11.6191
ltibia 27.6401
lfoot -2.92733 5.70354
ltoes -20.611
562
root 1.70876 17.5459 25.5636 2.13732 5.1984 -5.9227
lowerback 6.87588 13.6683 14.7596
upperback -2.87734 19.4787 -4.97395
thorax -0.332128 9.67085 -13.5113
lowerneck -21.0106 -5.53302 -2.43391
upperneck 23.9324 -7.29091 1.32095
head 11.4097 -3.31713 -0.264488
rclavicle -9.81996e-014 7.15625e-015
rhumerus -17.713 -0.129747 -77.8355
rradius 55.7122
rwrist 0.750073
rhand -10.781 9.04322
rfingers 7.12502
rthumb 15.2314 -20.3761
lclavicle -9.81996e-014 7.15625e-015
lhumerus -31.5268 13.4622 44.9943
lradius 50.4857
lwrist 12.0964
lhand -16.7036 -1.17064
lfingers 7.12502
lthumb 9.52138 28.5942
rfemur 20.6877 -2.43371 28.9976
rtibia 12.6455
rfoot -4.70321 -15.9461
rtoes -19.1915
lfemur -32.6996 -2.13873 -12.6129
ltibia 28.2135
lfoot -1.47401 5.06495
ltoes -19.6503
563
root 1.73619 17.5477 25.7376 2.29735 5.45512 -5.33013
lowerback 6.8237 13.8069 14.2339
upperback -2.92113 19.6094 -5.28095
thorax -0.359293 9.748 -13.5583
lowerneck -20.9321 -5.63383 -2.44883
upperneck 23.7498 -7.45776 1.43741
head 11.3349 -3.38259 -0.241627
rclavicle 4.86029e-014 1.27222e-014
rhumerus -17.5783 -0.194759 -78.4762
rradius 55.8201
rwrist 1.12947
rhand -10.6822 9.27294
rfingers 7.12502
rthumb 15.3266 -20.1391
lclavicle 4.86029e-014 1.27222e-014
lhumerus -32.2456 13.9355 44.1627
lradius 50.3947
lwrist 11.9328
lhand -16.6441 -1.10916
lfingers 7.12502
lthumb 9.5787 28.6531
rfemur 21.0297 -2.56732 28.3439
rtibia 12.7392
rfoot -4.0798 -15.9876
rtoes -18.9657
lfemur -32.7566 -1.79427 -13.6148
ltibia 28.8692
lfoot -0.51043 4.47153
ltoes -18.3541
564
root 1.76265 17.5499 25.9096 2.42172 5.75984 -4.88127
lowerback 6.81063 13.9285 13.8488
upperback -2.95934 19.7362 -5.53182
thorax -0.380555 9.82096 -13.6235
lowerneck -20.8562 -5.76551 -2.53801
upperneck 23.5946 -7.65249 1.58619
head 11.2769 -3.46281 -0.20015
rclavicle -2.37548e-014 -8.74653e-015
rhumerus -17.5164 -0.28541 -79.0738
rradius 55.9387
rwrist 1.47072
rhand -10.629 9.49124
rfingers 7.12502
rthumb 15.3779 -19.9169
lclavicle -2.37548e-014 -8.74653e-015
lhumerus -32.8933 14.4831 43.4452
lradius 50.2596
lwrist 11.6962
lhand -16.5867 -1.10482
lfingers 7.12502
lthumb 9.6341 28.6549
rfemur 21.2844 -2.7044 27.8865
rtibia 12.9969
rfoot -3.42035 -16.1093
rtoes -18.6761
lfemur -32.7872 -1.46754 -14.46
ltibia 29.6286
lfoot -0.0725837 3.96468
ltoes -16.8654
565
root 1.78926 17.5531 26.0789 2.52023 6.09231 -4.58552
lowerback 6.83265 14.0449 13.6399
upperback -3.00127 19.8776 -5.7369
thorax -0.382057 9.89992 -13.7313
lowerneck -20.8065 -5.94323 -2.73653
upperneck 23.5077 -7.89794 1.81013
head 11.2603 -3.56439 -0.124141
rclavicle 4.10987e-014 2.38542e-015
rhumerus -17.5304 -0.41919 -79.6321
rradius 56.0629
rwrist 1.73298
rhand -10.6638 9.67078
rfingers 7.12502
rthumb 15.3444 -19.7399
lclavicle 4.10987e-014 2.38542e-015
lhumerus -33.4587 15.0551 42.85
lradius 50.0963
lwrist 11.3535
lhand -16.5139 -1.08862
lfingers 7.12502
lthumb 9.70435 28.6678
rfemur 21.4455 -2.86751 27.6092
rtibia 13.3936
rfoot -2.67848 -16.2529
rtoes -18.2909
lfemur -32.801 -1.20441 -15.1129
ltibia 30.4785
lfoot -0.0744552 3.59025
ltoes -15.3279
